PathFileType	4	(X/Y/Z)	C249e_D251_DD_1_S001_1.trc
DataRate	CameraRate	NumFrames	NumMarkers	Units	OrigDataRate	OrigDataStartFrame	OrigNumFrames
50.0	50.0	4	54	mm	50.0	1	314
Frame#	Time		Q_WaistRFront		Q_WaistLFront		Q_WaistL		Q_WaistR		Q_WaistBack		Q_LThighFrontLow		Q_RThighFrontLow		Q_RKneeIn		Q_RKneeOut		Q_RShinFrontHigh		Q_LKneeIn		Q_LKneeOut		Q_LShinFrontHigh		Q_RForefoot5		Q_RForefoot2		Q_RHeelBack		Q_RAnkleOut		Q_LForefoot5		Q_LForefoot2		Q_LHeelBack		Q_LAnkleOut		Q_SpineThoracic2		Q_Chest		Q_SpineThoracic12		Q_HeadL		Q_HeadR		Q_HeadFront		Q_LShoulderTop		Q_LArm		Q_LElbowOut		Q_LElbowIn		Q_LWristOut		Q_LWristIn		Q_LHand2		Q_RShoulderTop		Q_RArm		Q_RElbowOut		Q_RElbowIn		Q_RWristOut		Q_RWristIn		Q_RHand2		RHipAngles		LHipAngles		RKneeAngles		LKneeAngles		RAnkleAngles		LAnkleAngles		RShoulderAngles		LShoulderAngles		RElbowAngles		LElbowAngles		RWristAngles		LWristAngles		Neck
			X1	Y1	Z1	X2	Y2	Z2	X3	Y3	Z3	X4	Y4	Z4	X5	Y5	Z5	X6	Y6	Z6	X7	Y7	Z7	X8	Y8	Z8	X9	Y9	Z9	X10	Y10	Z10	X11	Y11	Z11	X12	Y12	Z12	X13	Y13	Z13	X14	Y14	Z14	X15	Y15	Z15	X16	Y16	Z16	X17	Y17	Z17	X18	Y18	Z18	X19	Y19	Z19	X20	Y20	Z20	X21	Y21	Z21	X22	Y22	Z22	X23	Y23	Z23	X24	Y24	Z24	X25	Y25	Z25	X26	Y26	Z26	X27	Y27	Z27	X28	Y28	Z28	X29	Y29	Z29	X30	Y30	Z30	X31	Y31	Z31	X32	Y32	Z32	X33	Y33	Z33	X34	Y34	Z34	X35	Y35	Z35	X36	Y36	Z36	X37	Y37	Z37	X38	Y38	Z38	X39	Y39	Z39	X40	Y40	Z40	X41	Y41	Z41	X42	Y42	Z42	X43	Y43	Z43	X44	Y44	Z44	X45	Y45	Z45	X46	Y46	Z46	X47	Y47	Z47	X48	Y48	Z48	X49	Y49	Z49	X50	Y50	Z50	X51	Y51	Z51	X52	Y52	Z52	X53	Y53	Z53	X54	Y54	Z54

1	0.00000	89.39433	845.68341	190.61557	-166.53357	854.48529	205.12790	-162.43149	865.82843	270.58911	93.49641	857.02649	256.07681	-34.46754	861.42749	263.33298	-93.95559	487.28888	258.40314	32.52113	479.90332	240.31511	-22.96564	430.77649	256.03085	116.86877	424.02386	255.17102	37.31255	226.78899	263.48929	-34.41620	436.79398	270.97656	-173.87335	432.78421	282.62225	-99.14978	234.06877	267.50412	105.06665	37.46787	215.19029	55.98340	45.91916	210.78461	42.03233	39.17665	353.27817	99.42636	67.46918	340.11826	-165.56029	38.07616	208.72704	-116.45787	46.10070	203.77127	-101.32400	41.47433	346.22852	-158.62622	69.97539	333.11856	-39.93933	1300.34302	368.74823	-26.46110	739.13147	72.89914	-39.93933	1300.34302	368.74823	-93.66911	1476.03748	243.57121	45.37881	1462.18506	252.16098	-19.10571	1476.65601	178.45657	-176.07123	1304.22510	271.95306	-238.80898	1109.56372	248.06035	-236.91537	1018.39490	193.91585	-225.22075	1002.89978	292.01346	-284.17322	788.55646	230.02802	-234.61804	786.30750	223.76509	-298.19794	692.91669	203.02330	111.18801	1304.53113	269.38809	170.47995	1110.10449	237.30655	156.83572	1015.06702	192.26529	172.33565	1006.96936	290.72433	219.34358	789.22974	230.38890	170.01883	785.92474	237.88203	223.19797	692.28619	217.95236	-8.73050	-2.26525	1.91883	-6.50686	-8.92370	1.09550	-6.72787	1.31512	0.88617	0.09016	5.23435	0.08472	-10.93750	6.00936	-6.68570	-5.07407	1.28081	-7.55781	5.51538	-105.99188	82.97955	-5.56381	78.14777	78.97560	-7.72184	78.14777	82.59566	-6.25371	-0.00000	82.59566	-14.84731	-2.94404	82.59566	-15.95752	-16.83221	-0.00000	-8.60051	-7.31227	-1.45649
2	0.02000	89.63358	846.25751	190.35378	-166.32629	855.30078	204.13530	-162.40030	866.64581	269.60696	93.55956	857.60254	255.82544	-34.42037	862.12421	262.71622	-93.97989	488.06775	257.91147	32.34667	480.54352	239.62616	-23.21817	431.35211	255.27991	116.62072	424.68066	254.52184	37.17729	227.42374	263.37753	-34.47030	437.62167	270.61353	-173.94093	433.55453	282.07654	-99.10160	234.86240	267.22729	104.96738	37.52478	215.78548	55.89454	46.00246	211.31517	41.89993	40.15089	353.84381	99.32823	68.29929	340.52527	-164.70851	37.91171	208.53064	-115.62841	46.18502	203.76674	-101.16444	42.46432	346.32004	-158.56137	70.56507	332.76770	-40.31678	1300.84302	368.62280	-25.80611	740.06177	72.00787	-40.31678	1300.84302	368.62280	-93.80303	1476.80835	242.52399	45.11040	1462.34509	252.21239	-18.75414	1476.79773	177.96655	-176.86409	1304.74231	271.98672	-238.97554	1109.84583	247.71484	-236.42641	1018.67450	193.60138	-225.23254	1003.24261	291.76736	-283.06375	788.67584	229.49957	-233.46611	786.60327	223.51813	-296.74799	692.93951	203.97224	110.34832	1305.57214	269.32037	169.78831	1111.19214	236.87903	155.97453	1016.13159	191.93860	171.99496	1008.07483	290.31766	218.75758	790.32898	229.81450	169.47406	787.01031	237.56824	222.43916	693.37854	217.80592	-8.78754	-2.24757	1.90391	-6.44423	-8.97551	1.13983	-6.95813	1.39805	0.79874	0.10442	5.20231	0.11376	-10.74498	6.00391	-6.78452	-4.75756	1.08884	-7.83468	5.61557	-106.01771	83.11498	-5.55501	78.71775	79.09080	-7.73310	78.71775	82.66422	-6.16075	-0.00000	82.66422	-14.74919	-2.71872	82.66422	-16.37626	-16.57602	-0.00000	-8.95962	-7.67471	-1.17747
3	0.04000	91.45355	838.87402	193.95396	-164.63667	845.96356	206.39226	-161.12810	858.01270	271.76175	94.96210	850.92316	259.32349	-33.08300	854.46790	265.54263	-94.88838	479.45026	256.11087	29.52468	474.17468	239.22403	-27.32022	422.80945	253.46939	112.63793	419.60480	254.67061	38.04921	220.26495	255.07471	-35.86378	428.13788	268.65091	-175.48273	425.39954	278.60315	-102.64615	226.19693	260.90662	114.57530	34.52436	203.14102	64.96321	37.69094	197.79184	49.14053	30.09738	340.04684	103.44099	64.27641	327.75940	-172.25307	36.80650	197.43993	-123.02884	44.25420	192.80246	-107.74602	31.63752	334.75937	-164.57419	61.77700	323.36212	-40.15631	1302.18945	365.90729	-24.83083	737.21875	77.39386	-40.15631	1302.18945	365.90729	-94.10979	1479.45776	242.00641	44.95789	1465.90942	250.75967	-19.59754	1478.85022	176.83313	-177.08267	1304.04749	270.20712	-238.24040	1109.30298	246.95839	-236.40390	1018.03479	192.97951	-224.43227	1002.73438	291.07425	-283.31647	788.21283	229.64302	-233.77567	786.00574	223.25270	-290.18988	690.46191	205.53391	111.47614	1303.20752	269.44586	169.52620	1108.84375	239.67403	158.52606	1014.49744	192.50670	167.31483	1004.98901	291.66492	217.19051	787.80298	231.63759	167.45700	784.69025	235.74716	215.65561	690.08521	222.64590	-10.18312	-3.64883	2.63262	-8.06942	-8.04506	1.33256	-5.63487	3.85332	0.70791	0.13339	5.28874	-0.32030	-9.19430	5.98398	-2.00844	-7.24514	2.03091	-7.30081	4.68309	-101.58540	83.03903	-4.93671	78.22943	78.87450	-7.68368	78.22943	80.43398	-6.15101	-0.00000	80.43398	-11.86881	-0.23110	80.43398	-13.36367	-13.29965	-0.00000	-8.98729	-7.19461	-0.77334
4	0.06000	91.53368	836.98016	193.14543	-164.57124	841.17737	206.55605	-160.95045	853.32233	271.90170	95.15446	849.12512	258.49112	-32.89801	851.22369	265.19641	-94.37211	475.08197	256.15848	26.62899	472.53870	235.54739	-31.04500	420.55533	249.88127	108.93080	417.95676	250.04416	35.20851	218.32584	253.58447	-35.45159	423.61792	268.82410	-175.09773	421.21552	278.47739	-102.70253	221.83788	260.94193	114.11794	37.87820	202.99290	64.36622	37.63100	198.02246	50.18691	28.88728	340.38467	101.91528	66.72400	327.72424	-173.64645	38.06668	196.48665	-124.37302	45.23255	191.92821	-108.59824	26.61111	333.16876	-165.18108	57.73386	323.29526	-39.97690	1305.22888	364.65158	-27.32885	739.27014	77.95036	-39.97690	1305.22888	364.65158	-92.79933	1483.91077	239.62646	46.22101	1470.17334	248.82588	-18.36316	1480.17944	174.47025	-177.54099	1305.29651	270.37753	-237.71281	1110.93762	247.55913	-237.16985	1019.75977	193.39925	-223.34631	1004.25464	291.21796	-282.99680	789.77185	230.39355	-233.57994	787.66663	223.07635	-280.31110	690.27710	211.08652	112.15040	1302.55383	270.49307	168.84831	1108.56689	242.91927	161.76283	1015.27124	192.99245	161.54379	1003.68579	292.31882	215.61803	787.45050	232.49471	165.70264	784.57690	232.04944	209.46013	689.38531	225.64798	-10.78756	-5.05371	3.13687	-8.19324	-7.28184	1.10972	-6.98051	4.95889	0.15518	0.11491	5.32301	-0.37590	-10.36218	5.74475	1.69434	-9.65584	2.35143	-7.02075	4.12338	-96.07440	82.45561	-4.78144	77.34643	78.91217	-7.37946	77.34643	76.95943	-6.20397	-0.00000	76.95943	-9.89088	1.66268	76.95943	-10.50464	-7.95892	-0.00000	-11.28007	-6.74978	0.07927
